<?xml version="1.0" encoding="UTF-8"?>
<svg id="Layer_1" data-name="Layer 1" xmlns="http://www.w3.org/2000/svg" viewBox="0 0 512 512">
  <defs>
    <style>
      .cls-1 {
        fill: #fff;
      }

      .cls-2 {
        fill: #fa0;
      }
    </style>
  </defs>
  <rect class="cls-1" width="512" height="512" rx="73.38" ry="73.38"/>
  <g>
    <path class="cls-2" d="M80.69,123.83v264.35c0,16.61,13.47,30.08,30.08,30.08h75.13c17.76,0,32.17-14.4,32.17-32.17v-29.48c0-9.63,11.65-14.45,18.46-7.64l49.58,49.58c12.62,12.62,29.73,19.71,47.58,19.71h57.9c35.31,0,52.99-42.69,28.02-67.66L183.15,114.13c-13.05-13.05-30.74-20.38-49.19-20.38h-23.19c-16.61,0-30.08,13.47-30.08,30.08Z"/>
    <path class="cls-2" d="M270.6,147.94l106.51,106.51c20,20,54.2,5.84,54.2-22.45v-87.22c0-28.19-22.85-51.04-51.04-51.04h-87.22c-28.28,0-42.45,34.2-22.45,54.2Z"/>
  </g>
</svg>